PathFileType	4	(X/Y/Z)	 s11c0103.trc
DataRate	CameraRate	NumFrames	NumMarkers	Units	OrigDataRate	OrigDataStartFrame	OrigNumFrames
200	200	6	48	mm	200	1251	2000
Frame#	Time	racr			lacr			c7			jug			rlel			rdr			llel			ldr			s2			lic			ric			lasi			rasi			rpsi			lpsi			rgt			lgt			rth1			rth2			rth3			rth4			rlfc			rmfc			rsh1			rsh2			rsh3			rsh4			rlmal			rcal			rtoe			rmt5			lth1			lth2			lth4			lth3			llfc			lmfc			llmal			lcal			lmt5			lsh1			lsh2			lsh3			lsh4			ltoe			SBIKE			LBIKE			RBIKE			
		X1	Y1	Z1	X2	Y2	Z2	X3	Y3	Z3	X4	Y4	Z4	X5	Y5	Z5	X6	Y6	Z6	X7	Y7	Z7	X8	Y8	Z8	X9	Y9	Z9	X10	Y10	Z10	X11	Y11	Z11	X12	Y12	Z12	X13	Y13	Z13	X14	Y14	Z14	X15	Y15	Z15	X16	Y16	Z16	X17	Y17	Z17	X18	Y18	Z18	X19	Y19	Z19	X20	Y20	Z20	X21	Y21	Z21	X22	Y22	Z22	X23	Y23	Z23	X24	Y24	Z24	X25	Y25	Z25	X26	Y26	Z26	X27	Y27	Z27	X28	Y28	Z28	X29	Y29	Z29	X30	Y30	Z30	X31	Y31	Z31	X32	Y32	Z32	X33	Y33	Z33	X34	Y34	Z34	X35	Y35	Z35	X36	Y36	Z36	X37	Y37	Z37	X38	Y38	Z38	X39	Y39	Z39	X40	Y40	Z40	X41	Y41	Z41	X42	Y42	Z42	X43	Y43	Z43	X44	Y44	Z44	X45	Y45	Z45	X46	Y46	Z46	X47	Y47	Z47	X48	Y48	Z48	
1251	6.2550	536.868922	1366.487704	-119.037301	496.748290	1359.572275	-401.147671	454.998322	1449.596186	-256.289158	468.304946	1266.284675	-263.920535	627.397318	1158.289265	49.808764	791.310236	929.426914	-33.067739	533.946141	1109.411372	-567.088185	785.337364	930.026251	-442.995454	-101.548790	1207.919795	-223.146764	89.092676	1262.518491	-434.362247	122.900554	1205.609058	-26.032911	124.830376	1195.518440	-390.101398	150.303160	1147.276430	-59.713836	-64.896473	1281.693720	-155.322922	-73.297629	1285.799413	-246.683864	42.470842	1046.040471	-19.138560	38.278430	1150.725788	-451.513879	120.581305	927.435866	-8.296568	188.956780	869.633080	-12.810552	220.069750	790.338512	-33.071352	219.288308	891.942319	-14.237015	281.590965	704.786777	-50.204801	300.455131	692.696616	-174.677411	213.290547	561.939649	-43.384066	195.664419	478.100794	-65.571525	138.919643	412.386247	-71.965334	221.430113	470.474362	-94.003767	74.439383	287.516810	-91.864068	12.430602	286.439092	-143.311909	277.679711	176.596674	-134.364644	201.374782	167.542558	-67.607054	179.848682	1109.209587	-459.540135	265.244189	1106.801728	-453.457544	276.303040	1139.144964	-437.596957	341.918405	1060.151398	-457.788641	473.266704	1004.873743	-435.333737	483.704590	998.314930	-300.974631	280.350007	621.500717	-406.734817	214.120736	605.133312	-373.560640	377.158282	474.492650	-435.105925	425.049781	896.756844	-448.019407	411.598868	812.423037	-435.616803	356.993523	742.899809	-430.766582	440.602046	802.562007	-411.827893	471.244042	453.146884	-366.649195	-204.983270	952.263578	-259.715626	1.097163	83.291825	-460.524220	-15.389403	81.236523	-62.191072	
1252	6.2600	538.499077	1362.582456	-120.416227	498.030201	1355.671052	-401.381273	456.115136	1447.696607	-257.175432	467.213953	1264.139240	-264.657635	628.334311	1156.463638	50.014360	791.269601	928.991508	-32.424891	534.766850	1106.729891	-566.820252	784.016388	929.102456	-441.984024	-101.831629	1209.533187	-221.433458	88.489420	1263.177489	-434.980072	122.847517	1206.517512	-25.936058	123.645735	1195.481180	-391.216669	150.003741	1147.407854	-59.227603	-63.801328	1283.320613	-155.493808	-73.067559	1287.490541	-246.384334	42.524505	1047.230652	-18.910200	35.933974	1150.612034	-450.539018	122.631164	929.436125	-8.587763	191.710154	872.530851	-12.922337	224.002557	793.569133	-32.668072	221.671963	895.241426	-14.383513	286.534724	708.548854	-49.458610	305.156954	696.590201	-173.922670	214.927855	566.971773	-42.962534	195.455591	483.487405	-65.301660	137.355377	419.002772	-71.973563	221.166792	475.427600	-93.660603	70.402720	296.274697	-91.742167	8.397762	297.114802	-143.514632	269.680986	178.249151	-134.448075	193.099371	172.132435	-68.038921	177.223089	1107.580712	-459.122722	262.570481	1103.959892	-453.387972	274.102165	1136.258315	-437.654792	338.497147	1056.297401	-458.173339	471.674155	997.502430	-434.925324	481.234843	991.268974	-301.213724	282.094975	611.928442	-407.182760	215.527713	592.440008	-374.589612	384.675326	469.556354	-435.663078	423.968152	889.276336	-448.726177	411.444593	804.781056	-436.437019	357.518303	734.748881	-431.367969	440.501091	795.320166	-412.507878	479.564082	453.587474	-366.439591	-204.962704	952.267437	-259.513024	1.090730	83.368367	-460.434164	-15.384736	81.214779	-62.159326	
1253	6.2650	540.091182	1358.505388	-121.762269	499.342220	1351.997378	-401.507417	457.080057	1446.095631	-257.666254	465.041322	1262.267944	-264.696451	628.978323	1154.361514	50.339790	789.959787	928.292972	-32.598015	535.441961	1103.554442	-566.530714	784.163047	930.014661	-443.484725	-101.737769	1210.943070	-220.835162	88.002211	1263.721441	-435.505725	122.605740	1207.905028	-25.765346	122.617265	1194.847358	-392.105730	149.289169	1147.562900	-59.082057	-62.012212	1284.819266	-155.850973	-72.629370	1288.919717	-246.135448	42.948024	1048.243184	-18.806674	33.601630	1150.205254	-449.474601	124.993483	931.283437	-8.954710	194.716225	875.378469	-13.228257	228.446847	796.698546	-32.473773	224.320823	898.612394	-14.842580	291.685458	712.168151	-48.749374	309.892747	700.335780	-173.444943	216.915408	572.107276	-42.634702	195.673685	489.293734	-65.168464	136.288464	425.969777	-72.014746	221.279182	480.616563	-93.553237	66.526396	305.381676	-91.801490	4.765809	308.252672	-143.815441	261.989074	180.645824	-134.717026	185.231834	177.174480	-68.374621	174.809047	1105.073435	-458.890009	260.087752	1100.098931	-453.491411	272.237138	1132.279550	-438.029857	335.236099	1051.344776	-458.568871	470.023994	989.531814	-434.125050	479.136033	983.295518	-301.701131	283.433848	601.288689	-407.963290	216.643481	578.824862	-375.809220	391.888710	463.929904	-436.382914	422.540834	880.881053	-449.563165	410.851689	796.073489	-437.273638	357.627638	725.445387	-432.209408	440.001452	786.967911	-413.420867	487.070529	453.250360	-366.259618	-204.928347	952.323130	-259.465257	1.095214	83.393830	-460.434597	-15.391095	81.209033	-62.140892	
1254	6.2700	541.658891	1354.359958	-122.830143	500.570005	1348.584257	-401.729132	458.019094	1445.038815	-258.306103	463.666104	1260.759977	-265.077219	629.384179	1152.046008	50.808027	789.557800	928.035441	-32.006940	535.159556	1099.860057	-565.693984	782.846396	929.221828	-442.292191	-101.532080	1212.239692	-220.066068	87.591518	1264.018596	-435.917721	122.484378	1208.843514	-25.432357	121.882709	1194.031116	-393.329265	148.360597	1147.690846	-58.901161	-59.390082	1286.188585	-156.406995	-72.055032	1290.044934	-245.819264	43.650821	1049.156517	-18.566706	31.527909	1149.505402	-448.531613	127.608711	933.225514	-9.459300	197.936557	878.297470	-13.750198	232.729213	799.968841	-32.378048	227.172126	901.885632	-15.538636	297.079959	715.807720	-48.148142	314.604556	704.339658	-173.203644	219.291759	577.415589	-42.440585	196.325733	495.098765	-65.080527	135.534096	433.162932	-72.252475	221.714603	486.038301	-93.423912	63.474986	314.973741	-91.380547	1.684896	319.635935	-144.072364	254.541836	183.493064	-135.195729	177.798700	182.724819	-68.710299	172.872191	1101.563797	-458.860358	258.079371	1095.132477	-453.841631	270.802122	1127.315019	-438.639483	332.616130	1045.164291	-459.077866	467.623239	981.068067	-433.794218	476.793737	974.103814	-301.920270	284.328752	589.597386	-409.279119	217.212683	564.157270	-377.555488	398.791257	457.718025	-436.989626	420.839834	871.034467	-450.320711	409.882996	786.529857	-438.332701	357.269289	715.361618	-433.242409	439.103537	777.388314	-414.217720	493.867960	452.397464	-365.946379	-204.878623	952.269174	-259.349879	1.089260	83.396653	-460.430047	-15.391461	81.208402	-62.122076	
1255	6.2750	543.098220	1350.216069	-123.701505	501.577248	1345.673591	-402.092206	458.992904	1444.225331	-258.817314	462.260612	1259.447469	-265.433581	629.438284	1149.647655	51.306697	789.076763	927.891998	-31.500881	535.049001	1096.537621	-565.554633	783.186133	930.066403	-443.267071	-101.207520	1213.220912	-219.444250	87.448604	1264.079050	-436.342189	121.911119	1209.801577	-25.218343	121.548777	1192.721113	-394.583593	147.389035	1147.738966	-58.759499	-55.795900	1287.427480	-157.174451	-70.989057	1291.224318	-245.699267	44.228422	1049.877159	-18.764591	28.746519	1147.864779	-446.230943	130.344465	935.182549	-10.061418	201.419662	881.249592	-14.478801	237.296898	803.299379	-32.407460	230.248151	905.266286	-16.531513	302.670690	719.637328	-47.513048	319.346278	708.208733	-172.823891	221.952924	583.023749	-42.292515	197.249650	501.216682	-65.052347	135.115976	440.531539	-72.384693	222.553819	491.592568	-93.425635	60.269870	324.523473	-91.621939	-0.882908	331.286740	-144.455375	247.422562	186.827163	-135.764104	170.848038	188.784134	-69.086581	171.422540	1097.038291	-459.161954	256.628120	1089.314234	-454.289363	269.793191	1121.258792	-439.530742	330.185446	1038.076340	-459.833496	464.525850	971.752055	-434.027592	474.700651	964.093110	-302.314719	284.819182	577.298307	-411.201336	217.952577	548.100682	-379.336831	404.974203	450.845696	-437.499424	418.799576	860.469564	-451.337019	408.445824	775.752295	-439.142151	356.478759	704.301500	-434.309791	437.675307	767.135538	-415.190409	499.854182	451.101245	-365.408082	-204.835039	952.265802	-259.371087	1.091297	83.327075	-460.412524	-15.369684	81.183146	-62.131230	
1256	6.2800	544.016169	1346.204897	-124.492642	502.252673	1343.415330	-402.701724	459.934471	1443.496983	-259.062729	460.730735	1258.582588	-265.365669	629.003066	1147.161851	51.906912	788.602176	927.762164	-31.219598	534.296093	1093.777477	-565.387942	782.228790	929.121607	-441.629479	-100.854054	1214.032369	-218.893364	87.203943	1263.573100	-436.137185	121.327500	1210.666880	-24.898550	121.299036	1191.057779	-395.673123	146.240115	1147.603754	-58.635918	-55.538854	1288.616509	-157.213655	-69.865498	1291.764138	-245.630400	44.126144	1050.532132	-20.373154	27.565629	1146.593828	-446.280490	134.035189	937.730304	-9.852982	205.075943	884.080209	-15.318700	242.083223	806.723030	-32.545593	233.457077	908.440126	-18.299512	308.398127	723.609584	-46.980988	323.988164	712.357285	-172.713638	224.837188	588.702083	-42.148040	198.574586	507.300711	-65.007892	135.127692	448.223810	-72.523929	223.525656	497.469062	-93.444912	57.633443	334.286115	-91.927554	-2.864830	343.070500	-144.711528	240.643919	190.464995	-136.235493	164.308686	195.287213	-69.468825	170.305693	1091.950432	-459.725249	255.373841	1082.702942	-454.921875	269.004327	1114.277367	-440.429806	328.008746	1030.197664	-460.550323	461.070961	961.867681	-434.222192	472.496477	953.291787	-302.641991	284.936220	563.935321	-413.171140	218.359188	531.368069	-380.610267	410.085534	443.035090	-438.191768	416.258863	848.919550	-452.644893	406.564466	764.318066	-440.152017	355.161364	692.331308	-435.343373	435.780355	755.884411	-415.985564	504.721659	449.126229	-365.543241	-204.804877	952.225893	-259.455858	1.089269	83.209701	-460.455040	-15.366187	81.162291	-62.136132	
